<svg xmlns="http://www.w3.org/2000/svg" viewBox="0 0 17 12" fill="none">
<defs>
<path id="chevron" d="M8.49998 7.24621C8.30055 7.24655 8.10628 7.18465 7.94574 7.06961L0.377242 1.63565C0.178366 1.49273 0.0460295 1.27886 0.00934435 1.04108C-0.0273408 0.803294 0.0346308 0.561082 0.181626 0.367724C0.328621 0.174367 0.548599 0.0457012 0.793167 0.010034C1.03774 -0.0256333 1.28686 0.0346191 1.48574 0.177536L8.49998 5.20848L15.5142 0.177537C15.7131 0.0346199 15.9622 -0.0256325 16.2068 0.0100348C16.4514 0.0457021 16.6713 0.174367 16.8183 0.367725C16.9653 0.561083 17.0273 0.803295 16.9906 1.04108C16.9539 1.27886 16.8216 1.49273 16.6227 1.63565L9.05423 7.06961C8.89369 7.18465 8.69941 7.24655 8.49998 7.24621Z"/>
</defs>
<use href="#chevron" fill="#7ae229"/>
<use href="#chevron" fill="#7ae229" y="5"/>
</svg>
