<svg xmlns="http://www.w3.org/2000/svg" viewBox="0 0 17 12" fill="none">
<defs>
<path id="chevron" d="M8.50002 8.0474e-07C8.69945 -0.000333441 8.89373 0.0615705 9.05427 0.176605L16.6228 5.61057C16.7212 5.68133 16.8044 5.77026 16.8675 5.87228C16.9307 5.9743 16.9725 6.0874 16.9907 6.20514C17.0273 6.44292 16.9654 6.68513 16.8184 6.87849C16.6714 7.07185 16.4514 7.20051 16.2068 7.23618C15.9623 7.27185 15.7131 7.2116 15.5143 7.06868L8.50002 2.03774L1.48577 7.06868C1.3873 7.13944 1.27545 7.19066 1.15662 7.2194C1.03779 7.24814 0.914302 7.25384 0.793205 7.23618C0.672105 7.21852 0.555773 7.17784 0.450846 7.11647C0.345917 7.0551 0.254448 6.97423 0.181663 6.87849C0.108879 6.78275 0.056202 6.67401 0.0266419 6.55847C-0.00291817 6.44294 -0.0177355 6.32288 0.00938043 6.20514C0.027546 6.0874 0.0693837 5.97429 0.132509 5.87228C0.195633 5.77026 0.278807 5.68133 0.377281 5.61057L7.94577 0.176605C8.10631 0.0615704 8.30059 -0.000333475 8.50002 8.0474e-07Z"/>
</defs>
<use href="#chevron" fill="#ff3d00"/>
<use href="#chevron" fill="#ff3d00" y="5"/>
</svg>
